<?xml version="1.0" encoding="utf-8"?>
<!-- Generator: Adobe Illustrator 22.1.0, SVG Export Plug-In . SVG Version: 6.00 Build 0)  -->
<svg version="1.1" id="Capa_1" xmlns="http://www.w3.org/2000/svg" xmlns:xlink="http://www.w3.org/1999/xlink" x="0px" y="0px"
	 viewBox="0 0 11.8 3.8" style="enable-background:new 0 0 11.8 3.8;" xml:space="preserve">
<style type="text/css">
	.st0{opacity:0.55;}
	.st1{fill:none;stroke:#B7B3AB;stroke-width:0.25;stroke-miterlimit:10;}
</style>
<g class="st0">
	<line class="st1" x1="9.9" y1="0.8" x2="9.9" y2="3.1"/>
	<line class="st1" x1="11.2" y1="2" x2="8.6" y2="2"/>
</g>
<g>
	<path d="M0.7,2.4L0.6,3.1H0.4l0.3-2h0.2l0.3,2H1.1L1,2.4H0.7z M1,2.2L0.9,1.7c0-0.1,0-0.3-0.1-0.4h0c0,0.1,0,0.2-0.1,0.4L0.7,2.2H1
		z"/>
	<path d="M2,1v1.8C2,2.8,2,3,2,3.1H1.9l0-0.3h0c0,0.2-0.1,0.3-0.2,0.3c-0.2,0-0.3-0.3-0.3-0.7c0-0.5,0.1-0.8,0.3-0.8
		c0.1,0,0.2,0.1,0.2,0.2h0V1H2z M1.9,2.2c0,0,0-0.1,0-0.1c0-0.2-0.1-0.3-0.2-0.3C1.6,1.8,1.5,2,1.5,2.4c0,0.3,0.1,0.5,0.2,0.5
		c0.1,0,0.2-0.1,0.2-0.3c0,0,0-0.1,0-0.1V2.2z"/>
	<path d="M2.9,1v1.8c0,0.1,0,0.3,0,0.4H2.8l0-0.3h0c0,0.2-0.1,0.3-0.2,0.3c-0.2,0-0.3-0.3-0.3-0.7c0-0.5,0.1-0.8,0.3-0.8
		c0.1,0,0.2,0.1,0.2,0.2h0V1H2.9z M2.7,2.2c0,0,0-0.1,0-0.1c0-0.2-0.1-0.3-0.2-0.3C2.4,1.8,2.3,2,2.3,2.4c0,0.3,0.1,0.5,0.2,0.5
		c0.1,0,0.2-0.1,0.2-0.3c0,0,0-0.1,0-0.1V2.2z"/>
	<path d="M3.4,1.1c0.1,0,0.1,0,0.2,0C3.8,1,3.9,1.1,4,1.2C4,1.3,4,1.5,4,1.6C4,1.8,4,2,4,2.1C3.9,2.2,3.8,2.3,3.7,2.3
		c0,0-0.1,0-0.1,0v0.8H3.4V1.1z M3.6,2.1c0,0,0.1,0,0.1,0c0.2,0,0.3-0.2,0.3-0.4c0-0.3-0.1-0.4-0.2-0.4c-0.1,0-0.1,0-0.1,0V2.1z"/>
	<path d="M4.2,2.1c0-0.2,0-0.3,0-0.5h0.1l0,0.3h0c0-0.2,0.1-0.3,0.2-0.3c0,0,0,0,0,0v0.2c0,0,0,0,0,0C4.4,1.8,4.3,2,4.3,2.2
		c0,0,0,0.1,0,0.1v0.8H4.2V2.1z"/>
	<path d="M5.3,2.3c0,0.5-0.2,0.8-0.4,0.8c-0.2,0-0.3-0.3-0.3-0.7c0-0.5,0.2-0.8,0.4-0.8C5.2,1.6,5.3,1.9,5.3,2.3z M4.7,2.4
		c0,0.3,0.1,0.6,0.2,0.6c0.1,0,0.2-0.2,0.2-0.6c0-0.2-0.1-0.6-0.2-0.6C4.8,1.8,4.7,2.1,4.7,2.4z"/>
	<path d="M6.1,1v1.8c0,0.1,0,0.3,0,0.4H6l0-0.3h0C6,3,5.9,3.1,5.7,3.1c-0.2,0-0.3-0.3-0.3-0.7c0-0.5,0.1-0.8,0.3-0.8
		c0.1,0,0.2,0.1,0.2,0.2h0V1H6.1z M6,2.2c0,0,0-0.1,0-0.1c0-0.2-0.1-0.3-0.2-0.3C5.7,1.8,5.6,2,5.6,2.4c0,0.3,0.1,0.5,0.2,0.5
		C5.9,2.9,6,2.8,6,2.6c0,0,0-0.1,0-0.1V2.2z"/>
	<path d="M6.9,2.7c0,0.2,0,0.3,0,0.4H6.8l0-0.2h0c0,0.1-0.1,0.3-0.2,0.3C6.5,3.1,6.3,3,6.3,2.5V1.6h0.1v0.8c0,0.3,0,0.5,0.2,0.5
		c0.1,0,0.1-0.1,0.2-0.2c0,0,0-0.1,0-0.1V1.6h0.1V2.7z"/>
	<path d="M7.7,3c0,0-0.1,0.1-0.2,0.1c-0.2,0-0.4-0.3-0.4-0.7c0-0.4,0.2-0.8,0.4-0.8c0.1,0,0.1,0,0.2,0.1l0,0.2c0,0-0.1-0.1-0.2-0.1
		c-0.2,0-0.3,0.2-0.3,0.5c0,0.3,0.1,0.5,0.3,0.5c0.1,0,0.1,0,0.2-0.1L7.7,3z"/>
	<path d="M8,1.2v0.4h0.2v0.2H8v0.8c0,0.2,0,0.3,0.1,0.3c0,0,0.1,0,0.1,0l0,0.2c0,0-0.1,0-0.1,0C8,3.1,8,3.1,7.9,3
		c0-0.1-0.1-0.2-0.1-0.4V1.8H7.8V1.6h0.1V1.3L8,1.2z"/>
</g>
</svg>
