<?xml version="1.0" encoding="utf-8"?>
<!-- Generator: Adobe Illustrator 22.1.0, SVG Export Plug-In . SVG Version: 6.00 Build 0)  -->
<svg version="1.1" id="Capa_1" xmlns="http://www.w3.org/2000/svg" xmlns:xlink="http://www.w3.org/1999/xlink" x="0px" y="0px"
	 viewBox="0 0 32 6.7" style="enable-background:new 0 0 32 6.7;" xml:space="preserve">
<style type="text/css">
	.st0{fill:none;stroke:#FFFFFF;stroke-width:0.25;stroke-miterlimit:10;}
	.st1{fill:#FFFFFF;}
</style>
<g>
	<path class="st0" d="M20.8,4.7c0.3-0.1,0.6-0.5,1-0.9c0.3-0.5,0.4-0.5,0.8-1.4C23.4,1,23.5,1,23.6,1s0.1,0.5,0.1,0.8
		c0,0.9,2.9,0.9,1.8,1.4c-0.1,0.1-0.1,0.1-0.1,0.1l0,0c0,0.1-0.3,0.1-0.9,0.3"/>
	<g>
		<path class="st1" d="M24.5,3.8c-0.1,0-0.2,0-0.4,0s-0.3,0.1-0.4,0.3c-0.2,0.1-0.4,0.5-0.3,0.8c-0.1-0.5,0.1-0.7,0.3-0.9
			c0.1-0.1,0.2-0.1,0.4-0.1C24.2,3.7,24.4,3.7,24.5,3.8C24.5,3.7,24.5,3.7,24.5,3.8z"/>
	</g>
	<g>
		<path class="st1" d="M3.9,4C4.1,4.4,4.4,4.9,5,4.9c0.4,0,0.7-0.3,0.7-0.8S5.5,3.5,4.8,3.3C4.5,3,4,2.8,4,2.2
			c0-0.4,0.2-0.9,0.8-0.9c0.3,0,0.5,0.1,0.6,0.1l0,0l0.2-0.1l0.3,0.9H5.8c-0.2-0.5-0.6-0.9-1-0.9c-0.3,0-0.6,0.1-0.6,0.8
			C4.2,2.6,4.6,2.9,5,3c0.5,0.1,1,0.4,1,1c0,0.8-0.4,1.1-0.9,1.1c-0.3,0-0.6-0.3-0.7-0.3c0,0-0.2,0.1-0.3,0.3L3.9,4L3.9,4z"/>
		<path class="st1" d="M6.9,3.7c0,0.9,0.3,1.1,0.7,1.1c0.3,0,0.6-0.1,0.8-0.5h0.1C8.3,4.8,8,5,7.6,5c-0.6,0-1-0.5-1-1.2
			S7,2.5,7.5,2.5c0.6,0,0.9,0.4,0.9,1.1L6.9,3.7L6.9,3.7z M8.1,3.5c0-0.6-0.2-0.8-0.6-0.8C7.2,2.7,6.9,3,6.8,3.5H8.1z"/>
		<path class="st1" d="M8.9,4.9L8.9,4.9c0.2-0.1,0.3-0.2,0.3-0.4V1.8c0-0.1-0.1-0.3-0.3-0.3V1.4l0.5-0.1v3.2c0,0.3,0.1,0.3,0.3,0.3
			v0.1H8.9z"/>
		<path class="st1" d="M10.1,4.9L10.1,4.9c0.2-0.1,0.3-0.2,0.3-0.4V1.8c0-0.1-0.1-0.3-0.3-0.3V1.4l0.5-0.1v3.2
			c0,0.3,0.1,0.3,0.3,0.3v0.1C11,4.9,10.1,4.9,10.1,4.9z"/>
		<path class="st1" d="M12.6,4.9L12.6,4.9c0.2-0.1,0.3-0.3,0.3-0.4V3c0-0.3-0.1-0.3-0.3-0.3l0,0l0.6-0.1v0.5
			c0.1-0.3,0.3-0.5,0.7-0.5c0.2,0,0.4,0.1,0.5,0.4c0.1-0.3,0.4-0.4,0.6-0.4c0.3,0,0.5,0.3,0.5,0.5v1.5c0,0.3,0.1,0.3,0.3,0.3V5H15
			V4.8c0.2,0,0.3-0.1,0.3-0.3V3.2c0-0.3-0.1-0.4-0.4-0.4c-0.2,0-0.4,0.1-0.6,0.4v1.4c0,0.3,0.1,0.3,0.3,0.3V5h-0.8V4.8
			c0.2,0,0.3-0.1,0.3-0.3V3.2c0-0.3-0.1-0.4-0.3-0.4c-0.3,0-0.4,0.1-0.6,0.4v1.4c0,0.3,0.1,0.3,0.3,0.3V5
			C13.5,4.9,12.6,4.9,12.6,4.9z"/>
		<path class="st1" d="M16.3,2.5h0.8v0.2c-0.2,0-0.2,0-0.2,0.1c0,0,0,0,0,0.1l0.6,1.5L18,2.9V2.8c0-0.1-0.1-0.1-0.2-0.1V2.5h0.5v0.2
			c-0.2,0-0.3,0-0.4,0.4l-0.7,2c-0.1,0.5-0.3,0.5-0.5,0.5s-0.3-0.1-0.3-0.3s0.1-0.2,0.2-0.2c0.2,0,0.1,0.2,0.3,0.2
			c0.1,0,0.2-0.1,0.2-0.4l0.1-0.2l-0.7-2c0-0.1-0.1-0.1-0.3-0.1l0,0h0.1C16.3,2.6,16.3,2.5,16.3,2.5z"/>
	</g>
</g>
</svg>
